<svg width="24" height="18" viewBox="0 0 24 18" fill="none" xmlns="http://www.w3.org/2000/svg">
  <path d="M10.9894 10.0719C10.9894 8.81565 10.2587 7.72716 9.2001 7.20821C9.46644 6.8153 9.62221 6.34168 9.62221 5.83234C9.62221 4.4768 8.51943 3.37402 7.16389 3.37402C5.80836 3.37402 4.70558 4.4768 4.70558 5.83234C4.70558 6.34168 4.86135 6.8153 5.12769 7.20821C4.06916 7.72716 3.33838 8.81565 3.33838 10.0719V11.7641H10.9894V10.0719ZM7.16389 4.78023C7.74397 4.78023 8.21596 5.25216 8.21596 5.83229C8.21596 6.41241 7.74402 6.88435 7.16389 6.88435C6.58377 6.88435 6.11183 6.41241 6.11183 5.83229C6.11183 5.25216 6.58382 4.78023 7.16389 4.78023ZM9.58316 10.3578H4.74463V10.0719C4.74463 9.08973 5.54371 8.29065 6.52588 8.29065H7.80191C8.78408 8.29065 9.58316 9.08973 9.58316 10.0719V10.3578Z" fill="#979797"/>
  <path d="M13.7031 5.4375H20.5703V6.84375H13.7031V5.4375Z" fill="#979797"/>
  <path d="M13.7031 8.29688H20.5703V9.70312H13.7031V8.29688Z" fill="#979797"/>
  <path d="M13.7031 11.1562H20.5703V12.5625H13.7031V11.1562Z" fill="#979797"/>
  <path d="M3.31641 13.0771H10.9688V14.4834H3.31641V13.0771Z" fill="#979797"/>
  <path d="M0 0.61084V17.3893H24V0.61084H0ZM22.5938 15.9831H1.40625V2.01709H22.5938V15.9831Z" fill="#979797"/>
</svg>
