<?xml version="1.0" encoding="utf-8"?>
<!-- Generator: Adobe Illustrator 21.1.0, SVG Export Plug-In . SVG Version: 6.00 Build 0)  -->
<svg version="1.1" id="Layer_1" xmlns="http://www.w3.org/2000/svg" xmlns:xlink="http://www.w3.org/1999/xlink" x="0px" y="0px"
	 viewBox="0 0 22 22" style="enable-background:new 0 0 22 22;" xml:space="preserve">
<style type="text/css">
	.st0{fill:#FFFFFF;}
</style>
<path class="st0" d="M16,0H6C2.7,0,0,2.7,0,6V16c0,3.3,2.7,6,6,6H16c3.3,0,6-2.7,6-6V6C22,2.7,19.3,0,16,0z M11,17c-3.3,0-6-2.7-6-6
	s2.7-6,6-6s6,2.7,6,6S14.3,17,11,17z M17.2,6.4c-1,0-1.8-0.8-1.8-1.8s0.8-1.8,1.8-1.8s1.8,0.8,1.8,1.8S18.1,6.4,17.2,6.4z"/>
<path class="st0" d="M11,6.3c-2.6,0-4.7,2.1-4.7,4.7c0,2.6,2.1,4.7,4.7,4.7c2.6,0,4.7-2.1,4.7-4.7C15.7,8.4,13.6,6.3,11,6.3z"/>
<path class="st0" d="M17.2,4.1c-0.3,0-0.5,0.2-0.5,0.5s0.2,0.5,0.5,0.5c0.3,0,0.5-0.2,0.5-0.5S17.4,4.1,17.2,4.1z"/>
</svg>
