<svg width="195" height="83" viewBox="0 0 195 83" fill="none" xmlns="http://www.w3.org/2000/svg">
  <path d="M14.5 44.5C12.3679 44.5 9.12475 44.9416 6.21922 46.4831C3.10858 48.1334 0 51.3419 0 56.5C0 61.6581 3.10858 64.8666 6.21922 66.5169C9.12475 68.0584 12.3679 68.5 14.5 68.5H90.5C91.5345 68.5 93.0414 68.7584 94.0942 69.3169C94.574 69.5715 94.7837 69.7952 94.865 69.9114C94.9092 69.9746 95 70.1074 95 70.5C95 70.8926 94.9092 71.0254 94.865 71.0886C94.7837 71.2048 94.574 71.4285 94.0942 71.6831C93.0414 72.2416 91.5345 72.5 90.5 72.5H3V82.5H90.5C92.6321 82.5 95.8753 82.0584 98.7808 80.5169C101.891 78.8666 105 75.6581 105 70.5C105 65.3419 101.891 62.1334 98.7808 60.4831C95.8753 58.9416 92.6321 58.5 90.5 58.5H14.5C13.4655 58.5 11.9586 58.2416 10.9058 57.6831C10.426 57.4285 10.2163 57.2048 10.135 57.0886C10.0908 57.0254 10 56.8926 10 56.5C10 56.1074 10.0908 55.9746 10.135 55.9114C10.2163 55.7952 10.426 55.5715 10.9058 55.3169C11.9586 54.7584 13.4655 54.5 14.5 54.5H102V44.5H14.5Z" fill="#4576F3"/>
  <path fill-rule="evenodd" clip-rule="evenodd" d="M118 55.5V0H108V82.5H118V68.5L121 65.5L133 82.5H145L128 58.5L145 43.5H133L118 55.5Z" fill="#4576F3"/>
  <path fill-rule="evenodd" clip-rule="evenodd" d="M164 53.5H148V43.5H181L165.977 72.5H181V82.5H148L164 53.5Z" fill="#4576F3"/>
  <path fill-rule="evenodd" clip-rule="evenodd" d="M194 56.5L194 82.5L184 82.5L184 56.5L194 56.5Z" fill="#4576F3"/>
  <path fill-rule="evenodd" clip-rule="evenodd" d="M184.012 53.5L184.012 43.5L194.012 43.5L194.012 53.5L184.012 53.5Z" fill="#4576F3"/>
  <path d="M149.488 39H153.376V35.16H149.488V39ZM156.499 39H160.147V31.824C160.147 30.096 161.035 29.208 162.427 29.208C163.819 29.208 164.635 30.096 164.635 31.824V39H168.283V30.672C168.283 27.72 166.675 25.896 163.915 25.896C162.067 25.896 160.987 26.88 160.147 27.96V26.136H156.499V39ZM177.548 39.288C179.876 39.288 181.604 38.376 182.804 36.888L180.716 35.04C179.708 35.976 178.82 36.36 177.596 36.36C175.964 36.36 174.812 35.496 174.452 33.84H183.404C183.428 33.504 183.452 33.168 183.452 32.88C183.452 29.232 181.484 25.896 177.188 25.896C173.444 25.896 170.828 28.92 170.828 32.592C170.828 36.576 173.684 39.288 177.548 39.288ZM174.404 31.56C174.692 29.904 175.676 28.824 177.188 28.824C178.724 28.824 179.684 29.928 179.9 31.56H174.404ZM190.515 39.216C191.739 39.216 192.627 38.928 193.395 38.472V35.544C192.867 35.832 192.267 36 191.595 36C190.779 36 190.419 35.592 190.419 34.752V29.256H193.443V26.136H190.419V22.848H186.771V26.136H185.235V29.256H186.771V35.352C186.771 38.328 188.283 39.216 190.515 39.216Z" fill="black"/>
</svg>
