<svg width="77" height="22" viewBox="0 0 77 22" fill="none" xmlns="http://www.w3.org/2000/svg">
  <path fill-rule="evenodd" clip-rule="evenodd" d="M20.6079 4.18569e-07V0.00960741C20.5985 0.00960741 17.6207 3.66477e-07 16.8267 2.8917C16.0988 5.54323 14.0474 12.8638 13.9907 13.0655H13.4235C13.4235 13.0655 11.3249 5.58166 10.5876 2.8821C9.79349 -0.00960666 6.80629 4.18569e-07 6.80629 4.18569e-07H0V22H6.80629V8.9345H7.08988H7.37348L11.3438 22H16.0704L20.0407 8.94411H20.6079V22H27.4142V4.18569e-07H20.6079Z" fill="#4DB45E"/>
  <path fill-rule="evenodd" clip-rule="evenodd" d="M45.4698 0C45.4698 0 43.4752 0.182533 42.5393 2.30568L37.7182 13.0655H37.151V0H30.3447V22H36.7729C36.7729 22 38.862 21.8079 39.7979 19.6943L44.5245 8.9345H45.0917V22H51.898V0H45.4698Z" fill="#4DB45E"/>
  <path fill-rule="evenodd" clip-rule="evenodd" d="M54.923 9.99121V21.9999H61.7293V14.9868H69.1027C72.3168 14.9868 75.0393 12.9021 76.0508 9.99121H54.923Z" fill="#4DB45E"/>
  <path fill-rule="evenodd" clip-rule="evenodd" d="M69.1028 0H53.9683C54.7245 4.18865 57.8157 7.55109 61.8144 8.64629C62.7219 8.89607 63.6767 9.03057 64.6598 9.03057H76.325C76.429 8.531 76.4763 8.02183 76.4763 7.49345C76.4763 3.35284 73.1771 0 69.1028 0Z" fill="url(#paint0_linear)"/>
  <defs>
    <linearGradient id="paint0_linear" x1="53.9701" y1="4.51528" x2="76.4763" y2="4.51528" gradientUnits="userSpaceOnUse">
      <stop offset="0.3" stop-color="#00B4E6"/>
      <stop offset="1" stop-color="#088CCB"/>
    </linearGradient>
  </defs>
</svg>
