<?xml version="1.0" encoding="utf-8"?>
<!-- Generator: Adobe Illustrator 21.1.0, SVG Export Plug-In . SVG Version: 6.00 Build 0)  -->
<svg version="1.1" id="Layer_1" xmlns="http://www.w3.org/2000/svg" xmlns:xlink="http://www.w3.org/1999/xlink" x="0px" y="0px"
	 viewBox="0 0 14 22" style="enable-background:new 0 0 14 22;" xml:space="preserve">
<style type="text/css">
	.st0{fill:#FFFFFF;}
</style>
<path class="st0" d="M0.3,11.8c-0.6,1.1,0.1,1.6,1.5,2.5c1.2,0.8,2.9,1,4,1.2c-0.5,0.4,1.6-1.6-4.3,4.2c-1.3,1.2,0.8,3.1,2,2L7,18.3
	c1.3,1.3,2.6,2.5,3.4,3.3c1.3,1.2,3.3-0.7,2-2c-0.1-0.1-4.6-4.4-4.3-4.2c1.1-0.1,2.8-0.4,4-1.2l0,0c1.5-0.9,2.1-1.4,1.5-2.5
	c-0.3-0.6-1.2-1.2-2.4-0.2c0,0-1.6,1.2-4.2,1.2c-2.6,0-4.2-1.2-4.2-1.2C1.5,10.7,0.6,11.2,0.3,11.8L0.3,11.8z"/>
<path class="st0" d="M7,11.1c3.2,0,5.8-2.5,5.8-5.6C12.8,2.5,10.2,0,7,0C3.8,0,1.2,2.5,1.2,5.6C1.2,8.6,3.8,11.1,7,11.1z M7,2.8
	c1.6,0,2.8,1.2,2.8,2.7c0,1.5-1.3,2.7-2.8,2.7S4.1,7.1,4.1,5.6C4.1,4.1,5.4,2.8,7,2.8L7,2.8z"/>
</svg>
