<svg width="20" height="24" viewBox="0 0 20 24" fill="none" xmlns="http://www.w3.org/2000/svg">
  <path d="M13.9795 4.93142C11.7852 2.73705 8.21459 2.73705 6.02028 4.93142C3.82592 7.12578 3.82592 10.6963 6.02028 12.8907C7.11744 13.9878 8.55861 14.5364 9.99983 14.5364C11.441 14.5364 12.8823 13.9879 13.9794 12.8907C16.1738 10.6963 16.1738 7.12583 13.9795 4.93142ZM12.9845 5.92634C13.6282 6.56998 14.0189 7.37164 14.1591 8.20756H12.4557C12.3636 7.0557 12.0459 5.95648 11.5268 4.97726C12.0583 5.18262 12.5565 5.49832 12.9845 5.92634ZM7.01516 11.8958C6.37156 11.2521 5.98081 10.4505 5.84061 9.61456H7.54377C7.63587 10.7664 7.95359 11.8656 8.47264 12.8448C7.94127 12.6394 7.44317 12.3238 7.01516 11.8958ZM7.54377 8.20751H5.84061C5.98086 7.37164 6.37156 6.56998 7.01516 5.92634C7.44327 5.49828 7.94141 5.18257 8.47269 4.97721C7.95364 5.95643 7.63592 7.05565 7.54377 8.20751ZM9.99978 12.6692C9.40714 11.755 9.05834 10.6976 8.95316 9.61456H11.0464C10.9412 10.6976 10.5924 11.755 9.99978 12.6692ZM8.95316 8.20756C9.05834 7.12461 9.40714 6.06715 9.99978 5.15299C10.5924 6.06715 10.9412 7.12461 11.0464 8.20756H8.95316ZM12.9845 11.8958C12.5564 12.3239 12.0582 12.6395 11.5268 12.8449C12.0458 11.8657 12.3635 10.7664 12.4557 9.61452H14.159C14.0189 10.4504 13.6282 11.2521 12.9845 11.8958Z" fill="#979797"/>
  <path d="M14.8566 18.3735H5.13379V19.7805H14.8566V18.3735Z" fill="#979797"/>
  <path d="M0.854004 0V24H19.1458V0H0.854004ZM17.7388 22.593H2.261V1.407H17.7388V22.593H17.7388Z" fill="#979797"/>
</svg>
