<svg width="24" height="24" viewBox="0 0 24 24" fill="none" xmlns="http://www.w3.org/2000/svg">
  <path d="M23.4232 2.66785C23.4232 1.19678 22.2264 0 20.7554 0H7.11383C5.66803 0 4.49176 1.17627 4.49176 2.62207V19.1393H0.5625V21.4189C0.5625 22.842 1.72046 24 3.14355 24H16.8261C18.7432 24 19.4073 22.3526 19.4907 21.4814L19.494 21.4481V4.86072H23.4232V2.66785ZM3.14355 22.5938C2.49573 22.5938 1.96875 22.0668 1.96875 21.4189V20.5455H14.1645V21.5147L14.1676 21.548C14.1707 21.5806 14.1749 21.6143 14.1799 21.6489C14.1812 21.659 14.1828 21.6693 14.1844 21.6795C14.1885 21.7064 14.1932 21.7339 14.1984 21.7619C14.2002 21.7716 14.2018 21.7811 14.2039 21.791C14.211 21.8278 14.2191 21.8652 14.2282 21.9033C14.2299 21.9106 14.2319 21.9179 14.2337 21.925C14.2416 21.9569 14.2502 21.9891 14.2593 22.0219C14.2626 22.0338 14.2661 22.0457 14.2698 22.0576C14.2793 22.0904 14.2897 22.1235 14.3009 22.1569C14.3035 22.1649 14.3058 22.1728 14.3086 22.1808C14.3225 22.2213 14.3375 22.2623 14.3535 22.3035C14.3577 22.314 14.3619 22.3244 14.3661 22.3348C14.3791 22.3671 14.3926 22.3993 14.4069 22.4315C14.4122 22.4438 14.4175 22.4561 14.4232 22.4681C14.4417 22.509 14.4611 22.5498 14.482 22.5905C14.4825 22.5916 14.4831 22.5927 14.4836 22.5938H3.14355ZM18.0877 21.369C18.0738 21.4581 18.0176 21.7573 17.8486 22.0386C17.621 22.4172 17.2961 22.5938 16.8261 22.5938C16.3824 22.5938 16.069 22.446 15.8463 22.1299C15.8315 22.1089 15.817 22.0871 15.8031 22.0646C15.7826 22.0316 15.7637 21.9985 15.7465 21.9653C15.7293 21.9324 15.7137 21.8994 15.6995 21.867C15.6923 21.8509 15.6857 21.8348 15.6791 21.819C15.6088 21.6447 15.5801 21.4935 15.5707 21.4345V19.1393H5.89801V2.62207C5.89801 1.95172 6.44348 1.40625 7.11401 1.40625H18.4052C18.3882 1.43774 18.3723 1.4696 18.3565 1.50183C18.353 1.50897 18.3495 1.51611 18.3461 1.52325C18.3296 1.55786 18.3137 1.59265 18.2988 1.62781C18.2974 1.63129 18.2961 1.63458 18.2946 1.63806C18.2807 1.6712 18.2675 1.70471 18.2549 1.73859C18.2523 1.74536 18.2498 1.75232 18.2472 1.75928C18.2344 1.79462 18.2221 1.83051 18.2108 1.86676C18.2084 1.87408 18.2062 1.88159 18.204 1.8891C18.1932 1.92407 18.1831 1.95941 18.1738 1.99512C18.173 1.99805 18.1721 2.00098 18.1714 2.00391C18.1617 2.04144 18.1531 2.07935 18.145 2.11743C18.1434 2.12585 18.1415 2.13428 18.1399 2.1427C18.1322 2.1806 18.1254 2.21869 18.1194 2.25714C18.1185 2.26282 18.1177 2.26849 18.117 2.27417C18.1117 2.30969 18.1071 2.34558 18.1033 2.38165C18.1025 2.38843 18.1016 2.39539 18.1009 2.40216C18.097 2.44116 18.0941 2.48035 18.0921 2.5199C18.0916 2.52832 18.0912 2.53674 18.0908 2.54517C18.089 2.58582 18.0877 2.62665 18.0877 2.66785V21.369ZM22.017 3.45447H19.494V2.66785C19.494 1.97223 20.0598 1.40625 20.7554 1.40625C21.451 1.40625 22.017 1.97223 22.017 2.66785V3.45447Z" fill="#979797"/>
  <path d="M9.47412 3.45459H14.3802V4.86084H9.47412V3.45459Z" fill="#979797"/>
  <path d="M7.78662 6.125H16.2552V7.53125H7.78662V6.125Z" fill="#979797"/>
  <path d="M7.78662 8.79541H16.2552V10.2017H7.78662V8.79541Z" fill="#979797"/>
  <path d="M7.78662 11.4658H16.2552V12.8721H7.78662V11.4658Z" fill="#979797"/>
  <path d="M14.1777 13.8438C12.989 13.8438 12.022 14.8109 12.022 15.9995C12.022 17.188 12.989 18.1552 14.1777 18.1552C15.3662 18.1552 16.3332 17.188 16.3332 15.9995C16.3332 14.8109 15.3662 13.8438 14.1777 13.8438ZM14.1777 16.7489C13.7644 16.7489 13.4282 16.4127 13.4282 15.9995C13.4282 15.5864 13.7644 15.2502 14.1777 15.2502C14.5908 15.2502 14.9269 15.5864 14.9269 15.9995C14.9269 16.4127 14.5908 16.7489 14.1777 16.7489Z" fill="#979797"/>
</svg>
