<svg width="24" height="24" viewBox="0 0 24 24" fill="none" xmlns="http://www.w3.org/2000/svg">
  <path d="M0 0V9.2122H1.40625V1.40625H9.35522V0H0Z" fill="#979797"/>
  <path d="M14.645 0V1.40625H22.594V9.2122H24.0002V0H14.645Z" fill="#979797"/>
  <path d="M1.40625 22.5936V14.7876H0V23.9998H9.35522V22.5936H1.40625Z" fill="#979797"/>
  <path d="M22.594 14.7876V22.5936H14.645V23.9998H24.0002V14.7876H22.594Z" fill="#979797"/>
  <path d="M15.0709 11.0253C15.8805 10.2295 16.3835 9.12273 16.3835 7.90056C16.3835 5.48354 14.4171 3.51709 12 3.51709C9.58295 3.51709 7.61654 5.4835 7.61654 7.90056C7.61654 9.12278 8.11951 10.2295 8.92909 11.0253C7.11502 11.5159 5.77637 13.1759 5.77637 15.143V20.4828H18.2236V15.143C18.2236 13.1759 16.885 11.5159 15.0709 11.0253ZM12 4.92334C13.6417 4.92334 14.9772 6.2589 14.9772 7.90056C14.9772 9.54226 13.6417 10.8778 12 10.8778C10.3584 10.8778 9.02279 9.54226 9.02279 7.90056C9.02279 6.2589 10.3584 4.92334 12 4.92334ZM16.8174 19.0765H7.18262V15.143C7.18262 13.5665 8.46512 12.284 10.0416 12.284H13.9584C15.5349 12.284 16.8174 13.5665 16.8174 15.143V19.0765Z" fill="#979797"/>
</svg>
