<svg width="24" height="19" viewBox="0 0 24 19" fill="none" xmlns="http://www.w3.org/2000/svg">
  <path fill-rule="evenodd" clip-rule="evenodd" d="M0 16.8447C2.1792 18.2067 4.7664 19 7.548 19C16.6056 19 21.558 11.6897 21.558 5.35087C21.558 5.14306 21.5532 4.93762 21.5436 4.73219C22.506 4.05531 23.3412 3.211 24 2.24913C23.118 2.6315 22.1688 2.888 21.1728 3.002C22.1892 2.41181 22.968 1.46894 23.3376 0.350313C22.386 0.898937 21.3312 1.29794 20.2104 1.51288C19.3128 0.581875 18.0324 0 16.6164 0C13.8972 0 11.6916 2.14581 11.6916 4.79394C11.6916 5.17156 11.736 5.53613 11.82 5.88763C7.728 5.68813 4.098 3.77863 1.6716 0.876375C1.248 1.5865 1.0044 2.40825 1.0044 3.28819C1.0044 4.95187 1.8732 6.42081 3.1944 7.28056C2.3868 7.258 1.6284 7.04069 0.9636 6.68087C0.9636 6.70106 0.9636 6.72125 0.9636 6.74144C0.9636 9.06419 2.6628 11.0046 4.9128 11.4451C4.5012 11.5556 4.0656 11.6126 3.6168 11.6126C3.2988 11.6126 2.9904 11.5841 2.6904 11.5271C3.3156 13.4342 5.1348 14.8212 7.2888 14.858C5.604 16.1452 3.4836 16.91 1.1748 16.91C0.7776 16.91 0.3864 16.891 0 16.8447Z" fill="white"/>
</svg>
