<svg width="30" height="16" viewBox="0 0 30 16" fill="none" xmlns="http://www.w3.org/2000/svg">
  <path fill-rule="evenodd" clip-rule="evenodd" d="M14.6782 15.9327H16.4715C16.4715 15.9327 17.0128 15.8773 17.2893 15.599C17.5446 15.3425 17.5361 14.8622 17.5361 14.8622C17.5361 14.8622 17.5011 12.6132 18.6176 12.2815C19.7182 11.9547 21.1323 14.4552 22.6301 15.4168C23.7636 16.1446 24.6248 15.9852 24.6248 15.9852L28.6309 15.9327C28.6309 15.9327 30.7262 15.8119 29.7326 14.272C29.651 14.1462 29.1532 13.1321 26.7539 11.0495C24.2413 8.8699 24.5782 9.22244 27.6045 5.45138C29.4466 3.15587 30.1838 1.7536 29.9529 1.15348C29.7337 0.581086 28.3788 0.732601 28.3788 0.732601L23.8674 0.758349C23.8674 0.758349 23.5327 0.715766 23.2848 0.854408C23.0433 0.99008 22.8876 1.30698 22.8876 1.30698C22.8876 1.30698 22.1725 3.08357 21.2213 4.59477C19.2129 7.78354 18.4089 7.95189 18.0806 7.75383C17.3168 7.29235 17.5075 5.90098 17.5075 4.91167C17.5075 1.82094 18.0096 0.532561 16.5319 0.19883C16.0415 0.0889064 15.6802 0.0156242 14.4261 0.00374062C12.817 -0.0121042 11.4548 0.00770184 10.6836 0.361239C10.1699 0.59594 9.77372 1.11981 10.0152 1.14952C10.3129 1.18715 10.9887 1.31985 11.3467 1.77539C11.8086 2.36363 11.7927 3.6837 11.7927 3.6837C11.7927 3.6837 12.0586 7.32107 11.172 7.77364C10.5639 8.08261 9.73029 7.4508 7.93905 4.55714C7.02172 3.07565 6.32895 1.4377 6.32895 1.4377C6.32895 1.4377 6.19548 1.13169 5.95715 0.967303C5.66796 0.769243 5.26438 0.705863 5.26438 0.705863L0.977491 0.732601C0.977491 0.732601 0.334511 0.749437 0.0982924 1.01088C-0.112504 1.2436 0.081344 1.72488 0.081344 1.72488C0.081344 1.72488 3.43713 9.06499 7.23675 12.7638C10.7218 16.1555 14.6782 15.9327 14.6782 15.9327Z" fill="white"/>
</svg>
